Coordinates
version=1
nRows=65
nColumns=12
inDegrees=yes

Units are S.I. units (second, meters, Newtons, ...)
Angles are in degrees

endheader
time	SC_y	SC_z	SC_x	AC_y	AC_z	AC_x	GH_y	GH_z	GH_yy	EL_x	PS_y
       0.0              -29.68          22.05          51.75          57.44         -18.42         -9.655         -128.2           23.8          52.54          17.76          134.3
   0.03801              -29.68          22.05          51.74          57.44         -18.41         -9.654         -128.2          23.81          52.54          17.77          134.3
   0.07603              -29.68          22.05          51.74          57.44         -18.41         -9.653         -128.2          23.82          52.54          17.78          134.3
     0.114              -29.69          22.05          51.73          57.43          -18.4         -9.653         -128.2          23.83          52.54           17.8          134.3
    0.1521              -29.69          22.05          51.73          57.43          -18.4         -9.652         -128.2          23.84          52.54          17.81          134.3
    0.1901               -29.7          22.05          51.72          57.42          -18.4         -9.651         -128.2          23.85          52.54          17.83          134.3
    0.2281               -29.7          22.05          51.72          57.42         -18.39          -9.65         -128.2          23.86          52.54          17.85          134.3
    0.2661              -29.71          22.05          51.71          57.41         -18.39         -9.649         -128.3          23.87          52.55          17.87          134.3
    0.3041              -29.72          22.05           51.7          57.41         -18.38         -9.648         -128.3          23.89          52.55          17.89          134.3
    0.3421              -29.72          22.05           51.7           57.4         -18.37         -9.647         -128.3           23.9          52.55          17.91          134.3
    0.3801              -29.73          22.05          51.69          57.39         -18.37         -9.646         -128.3          23.92          52.55          17.93          134.2
    0.4181              -29.74          22.05          51.68          57.39         -18.36         -9.644         -128.3          23.94          52.55          17.96          134.2
    0.4562              -29.75          22.05          51.67          57.38         -18.35         -9.643         -128.3          23.96          52.56          17.99          134.2
    0.4942              -29.75          22.05          51.66          57.37         -18.34         -9.641         -128.3          23.98          52.56          18.01          134.2
    0.5322              -29.76          22.05          51.65          57.36         -18.33          -9.64         -128.3           24.0          52.56          18.05          134.2
    0.5702              -29.77          22.04          51.64          57.35         -18.32         -9.638         -128.3          24.02          52.56          18.08          134.2
    0.6082              -29.79          22.04          51.63          57.34         -18.31         -9.636         -128.3          24.05          52.57          18.12          134.1
    0.6462               -29.8          22.04          51.62          57.33          -18.3         -9.634         -128.3          24.08          52.57          18.16          134.1
    0.6842              -29.81          22.04           51.6          57.32         -18.29         -9.632         -128.3          24.11          52.57           18.2          134.1
    0.7222              -29.83          22.04          51.59          57.31         -18.28         -9.629         -128.3          24.14          52.58          18.25          134.1
    0.7603              -29.84          22.04          51.57          57.29         -18.26         -9.627         -128.3          24.18          52.58          18.31          134.0
    0.7983              -29.86          22.04          51.55          57.28         -18.24         -9.624         -128.4          24.22          52.59          18.37          134.0
    0.8363              -29.88          22.03          51.53          57.26         -18.23          -9.62         -128.4          24.27          52.59          18.43          134.0
    0.8743               -29.9          22.03           51.5          57.24          -18.2         -9.616         -128.4          24.32           52.6           18.5          133.9
    0.9123              -29.93          22.03          51.48          57.22         -18.18         -9.612         -128.4          24.37           52.6          18.58          133.9
    0.9503              -29.95          22.03          51.45          57.19         -18.16         -9.608         -128.4          24.44          52.61          18.67          133.8
    0.9883              -29.98          22.02          51.42          57.16         -18.13         -9.603         -128.4          24.51          52.62          18.78          133.8
     1.026              -30.02          22.02          51.38          57.13          -18.1         -9.597         -128.5          24.58          52.63          18.89          133.7
     1.064              -30.06          22.01          51.34           57.1         -18.06          -9.59         -128.5          24.67          52.64          19.02          133.7
     1.102               -30.1          22.01          51.29          57.06         -18.02         -9.583         -128.5          24.77          52.65          19.16          133.6
      1.14              -30.15           22.0          51.24          57.01         -17.97         -9.574         -128.6          24.89          52.66          19.33          133.5
     1.178              -30.21           22.0          51.18          56.96         -17.92         -9.565         -128.6          25.02          52.68          19.52          133.4
     1.216              -30.27          21.99          51.11           56.9         -17.86         -9.554         -128.6          25.17          52.69          19.74          133.3
     1.254              -30.35          21.98          51.02          56.83         -17.78         -9.541         -128.7          25.35          52.71          19.99          133.1
     1.292              -30.44          21.97          50.93          56.75          -17.7         -9.525         -128.8          25.56          52.74          20.29          133.0
      1.33              -30.55          21.96          50.81          56.65          -17.6         -9.507         -128.8           25.8          52.76          20.64          132.8
     1.368              -30.67          21.95          50.68          56.53         -17.48         -9.486         -128.9          26.09           52.8          21.06          132.5
     1.406              -30.82          21.93          50.52          56.39         -17.34          -9.46         -129.0          26.44          52.84          21.56          132.3
     1.444              -31.01          21.91          50.32          56.23         -17.17         -9.429         -129.2          26.87          52.88          22.17          131.9
     1.483              -31.23          21.89          50.08          56.02         -16.96         -9.392         -129.3          27.38          52.94          22.91          131.5
     1.521              -31.51          21.86          49.79          55.77          -16.7         -9.345         -129.5          28.02          53.01          23.82          131.0
     1.559              -31.85          21.83          49.42          55.46         -16.38         -9.287         -129.7          28.81           53.1          24.96          130.4
     1.597              -32.28          21.78          48.96          55.06         -15.97         -9.213         -130.0          29.81          53.22           26.4          129.6
     1.635              -32.83          21.72          48.37          54.56         -15.46          -9.12         -130.4          31.08          53.36          28.23          128.6
     1.673              -33.54          21.65          47.61          53.91          -14.8         -9.001         -130.9           32.7          53.54          30.57          127.4
     1.711              -34.44          21.55          46.64          53.09         -13.95         -8.848         -131.5          34.79          53.78          33.57          125.7
     1.749               -35.6          21.43          45.41          52.03         -12.87         -8.652         -132.3          37.45          54.08           37.4          123.7
     1.787              -37.05          21.28          43.85           50.7         -11.51         -8.406         -133.4           40.8          54.46          42.21          121.0
     1.825              -38.82          21.09          41.96          49.09         -9.848         -8.107         -134.6          44.88          54.92          48.09          117.8
     1.863              -40.87          20.87          39.76          47.21         -7.925         -7.759         -136.0          49.61          55.45          54.89          114.1
     1.901              -43.09          20.64          37.39          45.18         -5.843         -7.383         -137.6          54.73          56.03          62.26          110.1
     1.939              -45.31           20.4          35.01          43.15         -3.762         -7.007         -139.1          59.86          56.61          69.63          106.1
     1.977              -47.36          20.19          32.81          41.28         -1.839          -6.66         -140.5          64.59          57.14          76.44          102.4
     2.015              -49.13           20.0          30.92          39.66        -0.1802          -6.36         -141.8          68.67           57.6          82.31           99.2
     2.053              -50.58          19.85          29.36          38.33          1.181         -6.114         -142.8          72.02          57.98          87.12          96.58
     2.091              -51.74          19.72          28.13          37.28          2.263         -5.918         -143.6          74.68          58.28          90.96           94.5
     2.129              -52.64          19.63          27.16          36.45          3.111         -5.765         -144.2          76.77          58.52          93.96          92.86
     2.167              -53.35          19.55           26.4          35.81          3.771         -5.646         -144.7          78.39           58.7          96.29          91.59
     2.205               -53.9           19.5          25.81           35.3          4.287         -5.553         -145.1          79.66          58.85          98.12           90.6
     2.243              -54.33          19.45          25.35          34.91          4.693         -5.479         -145.4          80.66          58.96          99.56          89.81
     2.281              -54.67          19.41          24.98          34.59          5.015         -5.421         -145.6          81.45          59.05          100.7          89.19
     2.319              -54.95          19.38          24.69          34.34          5.274         -5.375         -145.8          82.09          59.12          101.6           88.7
     2.357              -55.17          19.36          24.45          34.14          5.483         -5.337         -146.0           82.6          59.18          102.4          88.29
     2.395              -55.36          19.34          24.25          33.97          5.654         -5.306         -146.1          83.03          59.23          103.0          87.96
     2.433              -55.51          19.32          24.09          33.83          5.796          -5.28         -146.2          83.37          59.26          103.5          87.69
